<svg width="80" height="72" viewBox="0 0 409 366" fill="none" xmlns="http://www.w3.org/2000/svg">
<path fill-rule="evenodd" clip-rule="evenodd" d="M76.602 0H333.834L337.014 2.7279V3.70858L407.152 115.621L407.212 115.731C407.68 116.572 407.976 117.497 408.084 118.454C408.191 119.411 408.108 120.38 407.839 121.303C407.57 122.227 407.121 123.089 406.516 123.839C406.152 124.291 405.736 124.697 405.277 125.048L208.602 361.941L207.71 362.753L205.906 363.836H204.359L203.992 365.216L203.625 363.836H201.532L199.818 362.806L198.875 362.02L1.67666 124.529L1.67135 124.523C0.692764 123.34 0.113123 121.878 0.0148689 120.347C-0.0832178 118.818 0.303387 117.296 1.12007 116L1.12391 115.994L72.0988 2.74473C72.4085 2.38301 72.6348 2.10213 72.9786 1.79193C73.8427 1.01223 74.8824 0.45007 76.0111 0.154642L76.602 0ZM198.827 347.104L199.343 347.725L199.135 346.945L198.827 347.104ZM219.503 326.409L391.855 118.738L330.33 20.6561L273.722 122.172L219.503 326.409ZM77.5971 20.7379L16.0475 118.821L188.399 326.491L134.18 122.254L77.5971 20.7379ZM203.992 21.465L148.759 120.471L203.992 328.268L259.225 120.471L203.992 21.465ZM317.651 13.7438H216.378L267.026 104.481L317.651 13.7438ZM191.607 13.7438H90.3595L140.983 104.479L191.607 13.7438Z" fill="#333333"/>
</svg>
